<?xml version="1.0" encoding="utf-8"?>
<!-- Svg Vector Icons : http://www.onlinewebfonts.com/icon -->
<!DOCTYPE svg PUBLIC "-//W3C//DTD SVG 1.1//EN" "http://www.w3.org/Graphics/SVG/1.1/DTD/svg11.dtd">
<svg version="1.1" xmlns="http://www.w3.org/2000/svg" xmlns:xlink="http://www.w3.org/1999/xlink" x="0px" y="0px" viewBox="0 0 1000 1000" enable-background="new 0 0 1000 1000" xml:space="preserve">
<metadata> Svg Vector Icons : http://www.onlinewebfonts.com/icon </metadata>
<g><path d="M884.3,490.4c-31.8,0-57.6,25.7-57.6,57.6c0,180.2-146.5,326.7-326.6,326.7c-180.1,0-326.6-146.5-326.6-326.7c0-180.1,146.5-326.6,326.6-326.6l0,0v96.1l230.6-153.7L500,10v96l0,0C256.3,106,58.1,304.4,58.1,548c0,243.7,198.3,442,441.9,442c243.6,0,441.9-198.3,441.9-442C941.9,516.2,916.2,490.4,884.3,490.4"/></g>
</svg>